<?xml version="1.0" encoding="utf-8"?>
<!-- Generator: Adobe Illustrator 27.2.0, SVG Export Plug-In . SVG Version: 6.00 Build 0)  -->
<svg version="1.1" id="Layer_1" xmlns="http://www.w3.org/2000/svg" xmlns:xlink="http://www.w3.org/1999/xlink" x="0px" y="0px"
	 viewBox="0 0 612 792" style="enable-background:new 0 0 612 792;" xml:space="preserve">
<style type="text/css">
	.st0{fill:#58A5DB;}
	.st1{fill:#FFFFFF;}
</style>
<g>
	<g>
		<path class="st0" d="M611.97,379.34c0,136.75,0,273.5,0.03,410.25c0,1.15-0.26,1.4-1.41,1.4c-203.06-0.03-406.13-0.03-609.19,0
			C0.26,791,0,790.74,0,789.6c0.03-130.63,0.03-261.27,0.03-391.9c0.46-0.38,0.97-0.2,1.47-0.15c7.6,0.85,14.56-1.07,21-5
			c7.48-4.56,13-11.05,17.65-18.33c2.89-4.51,5.86-8.94,9.71-12.72c8.59-8.45,18.83-11.74,30.63-9.43
			c9.6,1.88,17.85,6.7,25.53,12.61c4.51,3.47,8.18,7.8,12.44,11.53c4.76,4.16,9.93,7.64,15.95,9.72c8.6,2.98,16.96,1.93,25.14-1.65
			c6.55-2.86,12.23-7.06,17.76-11.52c8.42-6.79,17.58-11.97,28.72-12.73c4.53-0.31,8.98,0.07,13.29,1.37
			c8.34,2.51,15.3,7.27,21.42,13.38c5.39,5.39,11.75,9.21,19.05,11.46c7.96,2.45,16.04,2.76,24.17,1.13
			c8.34-1.67,15.58-5.43,20.88-12.27c4.41-5.69,9.9-9.94,16.42-12.87c6.71-3.02,13.73-4.1,21.04-2.76
			c8.63,1.58,15.2,6.42,20.46,13.18c2.98,3.84,6.15,7.48,9.95,10.52c4.72,3.76,10.03,6.33,16.07,6.93
			c8.2,0.82,15.43-2.04,22.12-6.52c6.04-4.04,10.87-9.33,15.57-14.79c3.76-4.37,7.77-8.5,12.69-11.61
			c8.52-5.39,17.04-5.42,25.6-0.11c5.86,3.63,10.44,8.59,14.6,13.97c4.15,5.36,8.17,10.81,13.65,14.96
			c7.15,5.43,14.91,7.02,23.43,3.75c6.96-2.68,12.69-7.28,18.37-11.93c4.61-3.78,8.85-7.98,13.64-11.55
			c5.6-4.17,11.49-7.77,18.4-9.32c6.99-1.57,13.72-0.92,20.11,2.55c4.4,2.39,8.06,5.67,11.51,9.24
			C602.46,372.86,607.01,376.37,611.97,379.34z"/>
		<path class="st1" d="M611.97,379.34c-4.96-2.97-9.51-6.48-13.53-10.64c-3.45-3.57-7.11-6.85-11.51-9.24
			c-6.38-3.47-13.11-4.12-20.11-2.55c-6.91,1.55-12.8,5.15-18.4,9.32c-4.79,3.57-9.03,7.77-13.64,11.55
			c-5.68,4.66-11.41,9.25-18.37,11.93c-8.51,3.28-16.27,1.68-23.43-3.75c-5.47-4.16-9.5-9.6-13.65-14.96
			c-4.16-5.37-8.74-10.34-14.6-13.97c-8.57-5.31-17.09-5.28-25.6,0.11c-4.93,3.12-8.93,7.24-12.69,11.61
			c-4.7,5.46-9.54,10.75-15.57,14.79c-6.69,4.47-13.91,7.33-22.12,6.52c-6.04-0.6-11.35-3.17-16.07-6.93
			c-3.81-3.03-6.97-6.68-9.95-10.52c-5.26-6.76-11.83-11.6-20.46-13.18c-7.31-1.34-14.32-0.26-21.04,2.76
			c-6.52,2.93-12.01,7.18-16.42,12.87c-5.3,6.85-12.53,10.6-20.88,12.27c-8.12,1.63-16.21,1.32-24.17-1.13
			c-7.3-2.24-13.65-6.07-19.05-11.46c-6.12-6.11-13.08-10.88-21.42-13.38c-4.32-1.3-8.76-1.68-13.29-1.37
			c-11.14,0.76-20.3,5.94-28.72,12.73c-5.53,4.46-11.21,8.66-17.76,11.52c-8.18,3.58-16.53,4.63-25.14,1.65
			c-6.02-2.08-11.19-5.56-15.95-9.72c-4.26-3.72-7.93-8.06-12.44-11.53c-7.68-5.91-15.94-10.73-25.53-12.61
			c-11.8-2.31-22.04,0.98-30.63,9.43c-3.85,3.78-6.82,8.21-9.71,12.72c-4.66,7.28-10.18,13.77-17.65,18.33
			c-6.44,3.93-13.4,5.86-21,5c-0.5-0.06-1.01-0.23-1.47,0.15c0-72.42,0-144.83-0.02-217.25c0-1.09,0.15-1.44,1.37-1.44
			c203.08,0.03,406.17,0.03,609.25,0c1.21,0,1.37,0.35,1.37,1.44C611.97,246.74,611.97,313.04,611.97,379.34z"/>
	</g>
</g>
</svg>
